<svg xmlns="http://www.w3.org/2000/svg" version="1.1" xmlns:xlink="http://www.w3.org/1999/xlink" xmlns:svgjs="http://svgjs.dev/svgjs" width="1000" height="625" viewBox="0 0 1000 625">
    <g transform="matrix(1,0,0,1,0,0)">
        <svg viewBox="0 0 576 360" data-background-color="#ffffff" preserveAspectRatio="xMidYMid meet" height="625" width="1000" xmlns="http://www.w3.org/2000/svg" xmlns:xlink="http://www.w3.org/1999/xlink">
            <g id="tight-bounds" transform="matrix(1,0,0,1,0,0)">
                <svg viewBox="0 0 576 360" height="360" width="576">
                    <g>
                        <svg>
                        </svg>
                    </g>
                    <g>
                        <svg viewBox="0 0 576 360" height="360" width="576">
                            <g>
                                <path d="M132.115 90l155.885-90 155.885 90v180l-155.885 90-155.885-90zM146.725 261.565l141.275 81.566 141.275-81.566v-163.13l-141.275-81.566-141.275 81.566z" fill="#fff3ff" fill-rule="nonzero" stroke="none" stroke-width="1" stroke-linecap="butt" stroke-linejoin="miter" stroke-miterlimit="10" stroke-dasharray="" stroke-dashoffset="0" font-family="none" font-weight="none" font-size="none" text-anchor="none" style="mix-blend-mode: normal" data-fill-palette-color="tertiary">
                                </path>
                            </g>
                            <g transform="matrix(1,0,0,1,185.5619295958279,99)">
                                <svg viewBox="0 0 204.8761408083442 162" height="162" width="204.8761408083442">
                                    <g>
                                        <svg viewBox="0 0 204.8761408083442 162" height="162" width="204.8761408083442">
                                            <g>
                                                <svg viewBox="0 0 204.8761408083442 162" height="162" width="204.8761408083442">
                                                    <g id="textblocktransform">
                                                        <svg viewBox="0 0 204.8761408083442 162" height="162" width="204.8761408083442" id="textblock">
                                                            <g>
                                                                <svg viewBox="0 0 204.8761408083442 162" height="162" width="204.8761408083442">
                                                                    <g transform="matrix(1,0,0,1,0,0)">
                                                                        <svg width="204.8761408083442" viewBox="-0.22 -36.11 47.36 37.45" height="162" data-palette-color="#041d69">
                                                                            <path d="M47.14-33.74L47.14-33.74Q47.14-33.37 46.97-32.84L46.97-32.84Q46.39-31.25 45.92-30.08L45.92-30.08 32.98 1.34 23.78-19.21 14.23 1.34-0.22-34.55 13.16-34.55 20.02-16.26 29.32-36.11 37.99-16.31 44.09-30.64Q44.41-31.45 44.63-32.23L44.63-32.23 45.04-33.72Q45.31-34.81 46.23-34.81 47.14-34.81 47.14-33.74Z" opacity="1" transform="matrix(1,0,0,1,0,0)" fill="#041d69" class="wordmark-text-0" data-fill-palette-color="primary" id="text-0">
                                                                            </path>
                                                                        </svg>
                                                                    </g>
                                                                </svg>
                                                            </g>
                                                        </svg>
                                                    </g>
                                                </svg>
                                            </g>
                                            <g></g>
                                        </svg>
                                    </g>
                                </svg>
                            </g>
                        </svg>
                    </g>
                    <defs></defs>
                </svg>
                <rect width="576" height="360" fill="none" stroke="none" visibility="hidden"></rect>
            </g>
        </svg>
    </g>
</svg>